<svg xmlns="http://www.w3.org/2000/svg" width="154" height="39" viewBox="0 0 154 39" fill="none"><path d="M29.2504 0.206543H9.1594C4.1008 0.206543 0 4.26216 0 9.26502V29.1347C0 34.1375 4.1008 38.1931 9.1594 38.1931H29.2504C34.309 38.1931 38.4098 34.1375 38.4098 29.1347V9.26502C38.4098 4.26216 34.309 0.206543 29.2504 0.206543Z" fill="#231F20"/><path d="M15.9383 22.091L11.2591 12.3745C13.2735 11.4257 15.5865 11.3072 17.6893 12.0449C19.792 12.7827 21.5123 14.3164 22.4717 16.3086L27.1509 26.025C25.1365 26.9738 22.8235 27.0924 20.7208 26.3546C18.618 25.6168 16.8977 24.0832 15.9383 22.091Z" fill="#FF6B00"/><path fill-rule="evenodd" clip-rule="evenodd" d="M27.9449 25.6516L32.4038 23.5513L25.8416 21.2842L27.9449 25.6516Z" fill="white"/><path fill-rule="evenodd" clip-rule="evenodd" d="M10.4647 12.748L6.00586 14.8484L12.5883 17.1578L10.4647 12.748Z" fill="white"/><path d="M75.4911 21.2094V28.7093H71.8842V27.0729C71.168 28.2699 69.7851 28.9043 67.8338 28.9043C64.7212 28.9043 62.8683 27.1949 62.8683 24.9223C62.8683 22.6021 64.5237 20.9895 68.5749 20.9895H71.6371C71.6371 19.3531 70.6498 18.4004 68.5749 18.4004C67.1988 18.3891 65.8558 18.8175 64.7458 19.622L63.3623 16.9591C64.8196 15.9327 66.9692 15.3711 69.0929 15.3711C73.1442 15.3713 75.4911 17.2274 75.4911 21.2094ZM71.6372 24.5568V23.213H68.9944C67.1914 23.213 66.6235 23.8722 66.6235 24.7519C66.6235 25.7046 67.4384 26.34 68.7971 26.34C70.0812 26.34 71.1927 25.7538 71.6372 24.5568Z" fill="#221F1F"/><path d="M100.423 21.1851V28.7088H96.5693V21.7713C96.5693 19.6454 95.606 18.6682 94.05 18.6682C92.3208 18.6682 91.1105 19.7676 91.1105 22.1131V28.7089H87.2574V21.7714C87.2574 19.6455 86.3438 18.6683 84.7381 18.6683C83.0337 18.6683 81.8234 19.7677 81.8234 22.1132V28.7089H77.9695V15.566H81.6501V17.081C82.6383 15.957 84.1204 15.3708 85.8249 15.3708C87.6776 15.3708 89.2585 16.0792 90.1969 17.5205C90.7767 16.8242 91.51 16.2685 92.3405 15.8959C93.1711 15.5233 94.0768 15.3437 94.9884 15.3708C98.1501 15.3707 100.423 17.1785 100.423 21.1851Z" fill="#221F1F"/><path d="M100.109 11.6079V14.8324C100.843 14.8327 101.546 15.1213 102.065 15.6345C102.584 16.1478 102.876 16.8438 102.876 17.5697V28.7059H106.876V18.707C106.876 15.5879 105.874 14.8325 105.874 14.8325H112.404V11.6081L100.109 11.6079Z" fill="#FF6B00"/><path d="M122.989 23.2129H112.936C113.306 24.8494 114.714 25.8512 116.739 25.8512C117.353 25.8755 117.966 25.7754 118.539 25.5568C119.113 25.3383 119.635 25.006 120.074 24.5804L122.124 26.7792C120.889 28.1713 119.036 28.9043 116.64 28.9043C112.046 28.9043 109.057 26.0463 109.057 22.1381C109.057 18.2045 112.096 15.3711 116.146 15.3711C120.049 15.3711 123.062 17.9602 123.062 22.1865C123.063 22.48 123.014 22.8949 122.989 23.2129ZM112.886 20.9895H119.432C119.334 20.2122 118.945 19.4995 118.341 18.9928C117.737 18.4861 116.963 18.2223 116.171 18.2537C115.375 18.2131 114.593 18.473 113.983 18.9809C113.373 19.4888 112.981 20.2067 112.886 20.9895Z" fill="#FF6B00"/><path d="M124.959 22.1381C124.959 18.1807 128.047 15.3711 132.37 15.3711C135.161 15.3711 137.36 16.5681 138.323 18.7177L135.334 20.3058C135.056 19.7583 134.629 19.2988 134.101 18.9793C133.573 18.6598 132.964 18.4931 132.345 18.4981C130.394 18.4981 128.862 19.8419 128.862 22.1382C128.862 24.4346 130.394 25.7775 132.345 25.7775C132.965 25.7878 133.576 25.6233 134.105 25.3032C134.634 24.9831 135.06 24.5207 135.334 23.9699L138.323 25.5825C137.36 27.6838 135.161 28.9045 132.37 28.9045C128.047 28.9044 124.959 26.0956 124.959 22.1381Z" fill="#FF6B00"/><path d="M154 21.1856V28.7093H150.146V21.7718C150.146 19.646 149.158 18.6688 147.454 18.6688C145.602 18.6688 144.268 19.7927 144.268 22.2113V28.7094H140.414V10.5835H144.268V16.9349C145.305 15.9084 146.787 15.3714 148.492 15.3714C151.629 15.3713 154 17.1791 154 21.1856Z" fill="#FF6B00"/><path d="M61.1776 23.558C61.2066 23.4244 61.231 23.2899 61.2524 23.1543C61.2703 23.0383 61.2891 22.9229 61.3012 22.8072C61.3277 22.5652 61.3427 22.321 61.3447 22.0746C61.3447 22.069 61.3457 22.0634 61.3457 22.0578C61.3457 22.056 61.3457 22.0545 61.3457 22.0525C61.3461 21.9827 61.3445 21.9128 61.3428 21.8427C61.3418 21.8003 61.3428 21.7586 61.341 21.7155C61.3384 21.7111 61.3393 21.7076 61.3376 21.6997C61.3372 21.6106 61.3299 21.5196 61.3225 21.429C61.3212 21.4069 61.3175 21.3857 61.3156 21.3639C61.2916 21.0761 61.2508 20.7899 61.1934 20.5067C61.182 20.4523 61.1614 20.4024 61.1487 20.3486L61.1469 20.3402C61.1311 20.2762 61.1145 20.2162 61.0977 20.1556C61.0923 20.1351 61.0885 20.1144 61.083 20.0939L61.0764 20.0696L61.0762 20.067C61.0529 19.9798 61.0252 19.8951 60.9975 19.8104L60.9966 19.8079L60.9942 19.8003C60.9461 19.6482 60.8961 19.4982 60.8389 19.3512C60.7543 19.1289 60.6606 18.9084 60.5521 18.6916C60.528 18.6441 60.5017 18.5983 60.4765 18.5513C60.4314 18.4661 60.3884 18.3803 60.3391 18.2962C60.2445 18.1345 60.1433 17.9782 60.0378 17.8256C60.025 17.8072 60.0111 17.7899 59.9981 17.7715C59.0865 16.4775 57.7808 15.5051 56.2714 14.9962C56.2659 14.9943 56.2611 14.9916 56.2555 14.9897C56.2474 14.9868 56.2389 14.9847 56.2307 14.9819C56.1513 14.9556 56.0714 14.9307 55.9911 14.9072C55.9689 14.9007 55.9479 14.893 55.9254 14.8866C55.9211 14.887 55.9167 14.8866 55.9126 14.8854C55.169 14.6734 54.3968 14.5767 53.6233 14.5987L56.0753 11.2326C56.1872 11.0791 56.2674 10.9054 56.3113 10.7212C56.3553 10.5371 56.3621 10.3462 56.3314 10.1594C56.3007 9.97267 56.2331 9.79371 56.1324 9.63281C56.0318 9.47191 55.9001 9.3322 55.7448 9.22167C55.4313 8.99851 55.041 8.90758 54.6597 8.96887C54.2785 9.03016 53.9374 9.23867 53.7115 9.54855L50.8948 13.4152L50.8945 13.415L50.7495 13.6139L47.8726 17.5485C47.8324 17.6011 47.7944 17.6549 47.7555 17.7086L47.6066 17.9125L47.6162 17.9195C47.2023 18.5274 46.8824 19.1929 46.6671 19.8941C46.6067 20.0906 46.5544 20.2878 46.5114 20.4908L46.5289 20.4942C46.4286 20.9531 46.3738 21.4207 46.3654 21.8902H46.3504C46.3258 22.9877 46.5551 24.0764 47.0209 25.0729C47.0646 25.1688 47.1091 25.2613 47.1571 25.3546C47.1687 25.3833 47.1846 25.4095 47.1971 25.4349C47.2479 25.5325 47.303 25.6275 47.3581 25.7225C47.4212 25.8306 47.4852 25.9352 47.5527 26.0407C47.6406 26.1698 47.7285 26.2987 47.8217 26.4215C47.8856 26.5113 47.9513 26.594 48.0205 26.6777C48.0835 26.756 48.15 26.8353 48.2175 26.9111C48.3204 27.0251 48.4241 27.1357 48.5287 27.2429C49.4949 28.2184 50.7165 28.9088 52.0569 29.237C53.9331 29.6908 55.9141 29.4113 57.5872 28.4568C59.2604 27.5022 60.4967 25.9461 61.0387 24.1126C61.0474 24.0835 61.0568 24.0548 61.0651 24.0256C61.0858 23.9525 61.1126 23.8829 61.1311 23.8086C61.152 23.7251 61.1599 23.6415 61.1776 23.558ZM56.1428 25.9324C55.5083 26.2978 54.7937 26.5059 54.0602 26.5388C54.0532 26.5391 54.0461 26.5397 54.039 26.54C53.9182 26.5449 53.7976 26.5431 53.6772 26.5385C53.6448 26.5371 53.6122 26.5366 53.5798 26.5346C53.4866 26.5291 53.3939 26.5187 53.3013 26.5076C53.2395 26.4999 53.1772 26.4926 53.1158 26.4824C53.0537 26.4725 52.9921 26.4597 52.9307 26.4472C52.8383 26.4281 52.7463 26.408 52.6555 26.3834C52.6248 26.3752 52.5944 26.3659 52.5638 26.3571C52.4444 26.322 52.3259 26.284 52.21 26.2396L52.2002 26.2358C51.9344 26.1336 51.6786 26.0074 51.4361 25.8589L51.4349 25.8609C51.0113 25.6032 50.6333 25.2788 50.3156 24.9005C50.2808 24.8581 50.246 24.8156 50.2126 24.772C50.1404 24.679 50.0686 24.5853 50.003 24.4856L49.9996 24.4847C49.9604 24.4159 49.9169 24.3496 49.8778 24.2809C49.8223 24.1861 49.7747 24.0884 49.7271 23.9909C49.6937 23.9253 49.6638 23.8595 49.6359 23.7935C49.2551 22.9032 49.17 21.9164 49.393 20.9752C49.5742 20.2245 49.9463 19.532 50.4741 18.9634C51.0313 18.3671 51.74 17.9294 52.5264 17.6959C53.3127 17.4624 54.148 17.4417 54.9452 17.6358C55.6649 17.8112 56.3308 18.1565 56.886 18.6422C57.4411 19.1279 57.8689 19.7395 58.1327 20.4246C58.152 20.4764 58.1675 20.5289 58.1863 20.5809C58.248 20.753 58.2987 20.9287 58.3383 21.1069C58.3534 21.1783 58.3641 21.2497 58.3751 21.3215C58.3805 21.3555 58.3869 21.3895 58.3915 21.4235C58.4014 21.486 58.4069 21.5495 58.4142 21.6141C58.4226 21.705 58.4277 21.7956 58.4305 21.8859C58.4338 21.9379 58.4342 21.9901 58.4318 22.0422C58.4255 22.8316 58.2111 23.6056 57.8096 24.2879C57.4082 24.9702 56.8336 25.537 56.1428 25.9324V25.9324Z" fill="#231F20"/></svg>